<svg height="64" viewBox="0 0 217 64" width="217" xmlns="http://www.w3.org/2000/svg">
    <g fill="none" transform="translate(.808594 .804688)">
      <path
        d="m208.617187 62.4375h-201.234375c-4.078125 0-7.382812-3.304688-7.382812-7.382813v-47.671875c0-4.078125 3.304687-7.382812 7.382812-7.382812h201.234375c4.078125 0 7.382813 3.304687 7.382813 7.382812v47.671875c0 4.078125-3.304688 7.382813-7.382813 7.382813"
        fill="#000"
      />
      <g fill="#fff">
        <path
          d="m74.652344 15.957031-.828125-2.59375c-.203125-.640625-.375-1.355469-.53125-1.964844h-.03125c-.152344.609375-.3125 1.339844-.496094 1.964844l-.8125 2.59375zm-3.011719 1.449219-.90625 2.984375h-1.984375l3.375-10.523438h2.449219l3.417968 10.523438h-2.058593l-.953125-2.984375"
        />
        <path
          d="m80.863281 12.789062 1.234375 3.851563c.21875.671875.371094 1.28125.511719 1.90625h.046875c.140625-.625.3125-1.21875.515625-1.90625l1.21875-3.851563h2.011719l-2.902344 7.601563h-1.886719l-2.828125-7.601563"
        />
        <path
          d="m92.195312 16.671875c-1.359375-.015625-2.65625.265625-2.65625 1.421875 0 .75.484375 1.09375 1.09375 1.09375.777344 0 1.328125-.5 1.511719-1.046875.050781-.140625.050781-.28125.050781-.421875zm1.871094 1.890625c0 .6875.03125 1.359375.125 1.824218h-1.734375l-.136719-.839843h-.050781c-.449219.589843-1.246094 1.011718-2.246094 1.011718-1.53125 0-2.386718-1.105468-2.386718-2.261718 0-1.90625 1.699218-2.886719 4.507812-2.871094v-.125c0-.5-.199219-1.328125-1.542969-1.328125-.75 0-1.53125.234375-2.046875.5625l-.375-1.25c.5625-.34375 1.546875-.667969 2.75-.667969 2.433594 0 3.136719 1.542969 3.136719 3.214844"
        />
        <path
          d="m96.78125 12.789062h1.917969v7.601563h-1.917969zm.949219-1.09375c-.636719 0-1.058594-.46875-1.058594-1.03125 0-.59375.433594-1.046875 1.078125-1.046875.652344 0 1.058594.453125 1.074219 1.046875 0 .5625-.421875 1.03125-1.074219 1.03125"
        />
        <path d="m101.460937 20.390625h1.921875v-11.101563h-1.921875z" />
        <path
          d="m110.1875 16.671875c-1.359375-.015625-2.65625.265625-2.65625 1.421875 0 .75.484375 1.09375 1.09375 1.09375.78125 0 1.328125-.5 1.515625-1.046875.046875-.140625.046875-.28125.046875-.421875zm1.871094 1.890625c0 .6875.03125 1.359375.125 1.824218h-1.730469l-.140625-.839843h-.046875c-.453125.589843-1.25 1.011718-2.25 1.011718-1.527344 0-2.386719-1.105468-2.386719-2.261718 0-1.90625 1.703125-2.886719 4.511719-2.871094v-.125c0-.5-.203125-1.328125-1.546875-1.328125-.75 0-1.53125.234375-2.042969.5625l-.375-1.25c.5625-.34375 1.542969-.667969 2.746094-.667969 2.433594 0 3.136719 1.542969 3.136719 3.214844"
        />
        <path
          d="m116.695312 17.25c0 .15625.015625.3125.046875.453125.203125.78125.875 1.34375 1.699219 1.34375 1.203125 0 1.9375-.953125 1.9375-2.496094 0-1.34375-.640625-2.4375-1.921875-2.4375-.78125 0-1.496094.5625-1.699219 1.40625-.03125.140625-.0625.3125-.0625.5zm-1.921875-7.960938h1.921875v4.542969h.03125c.46875-.734375 1.292969-1.214844 2.433594-1.214844 1.859375 0 3.183594 1.542969 3.167969 3.855469 0 2.730469-1.730469 4.089844-3.449219 4.089844-.984375 0-1.855469-.375-2.402344-1.3125h-.03125l-.09375 1.140625h-1.640625c.03125-.515625.0625-1.359375.0625-2.125"
        />
        <path d="m124.589844 20.390625h1.917968v-11.101563h-1.917968z" />
        <path
          d="m133.984375 15.785156c.015625-.703125-.296875-1.859375-1.574219-1.859375-1.1875 0-1.6875 1.078125-1.765625 1.859375zm-3.339844 1.339844c.046875 1.375 1.125 1.96875 2.34375 1.96875.886719 0 1.511719-.140625 2.105469-.34375l.28125 1.308593c-.65625.285157-1.5625.484375-2.652344.484375-2.46875 0-3.921875-1.511718-3.921875-3.835937 0-2.109375 1.28125-4.089844 3.71875-4.089844 2.464844 0 3.277344 2.027344 3.277344 3.699219 0 .359375-.03125.640625-.0625.808594"
        />
        <path
          d="m145.332031 19.171875c1.089844 0 1.855469-1.0625 1.855469-2.605469 0-1.1875-.53125-2.5625-1.839844-2.5625-1.359375 0-1.90625 1.328125-1.90625 2.59375 0 1.464844.734375 2.574219 1.871094 2.574219zm-.0625 1.390625c-2.140625 0-3.808594-1.46875-3.808594-3.917969 0-2.5 1.636719-4.027344 3.933594-4.027344 2.261719 0 3.777344 1.589844 3.777344 3.902344 0 2.792969-1.96875 4.042969-3.886719 4.042969"
        />
        <path
          d="m151.429687 15.050781c0-.875-.027343-1.609375-.058593-2.265625h1.667968l.09375 1.140625h.046875c.34375-.59375 1.171875-1.308594 2.4375-1.308594 1.324219 0 2.699219.855469 2.699219 3.261719v4.507812h-1.921875v-4.289062c0-1.09375-.40625-1.921875-1.449219-1.921875-.765625 0-1.296875.546875-1.5 1.125-.0625.15625-.09375.390625-.09375.609375v4.476562h-1.921875"
        />
        <path
          d="m167.164062 10.835937v1.949219h1.824219v1.4375h-1.824219v3.339844c0 .9375.25 1.40625.980469 1.40625.34375 0 .53125-.015625.75-.078125l.03125 1.449218c-.28125.113282-.796875.203125-1.390625.203125-.714844 0-1.292969-.234375-1.652344-.621093-.421875-.4375-.609375-1.140625-.609375-2.140625v-3.558594h-1.078125v-1.4375h1.078125v-1.417969"
        />
        <path
          d="m171.125 9.289062h1.921875v4.527344h.03125c.234375-.359375.5625-.65625.953125-.859375.390625-.214844.839844-.339844 1.324219-.339844 1.296875 0 2.652343.855469 2.652343 3.292969v4.480469h-1.917968v-4.277344c0-1.09375-.40625-1.9375-1.46875-1.9375-.746094 0-1.277344.5-1.496094 1.078125-.0625.171875-.078125.375-.078125.578125v4.558594h-1.921875"
        />
        <path
          d="m185.4375 15.785156c.015625-.703125-.296875-1.859375-1.578125-1.859375-1.1875 0-1.683594 1.078125-1.761719 1.859375zm-3.339844 1.339844c.046875 1.375 1.121094 1.96875 2.339844 1.96875.890625 0 1.515625-.140625 2.105469-.34375l.285156 1.308593c-.65625.285157-1.5625.484375-2.65625.484375-2.464844 0-3.917969-1.511718-3.917969-3.835937 0-2.109375 1.28125-4.089844 3.714844-4.089844 2.464844 0 3.277344 2.027344 3.277344 3.699219 0 .359375-.03125.640625-.0625.808594"
        />
        <path
          d="m47.757812 30.59375c-.050781-5.207032 4.261719-7.742188 4.460938-7.859375-2.441406-3.5625-6.226563-4.046875-7.558594-4.085938-3.175781-.332031-6.257812 1.90625-7.875 1.90625-1.652344 0-4.148437-1.871094-6.832031-1.816406-3.460938.054687-6.695313 2.058594-8.46875 5.164062-3.65625 6.339844-.929688 15.652344 2.578125 20.777344 1.757812 2.507813 3.804687 5.3125 6.488281 5.210938 2.625-.109375 3.605469-1.671875 6.773438-1.671875 3.140625 0 4.0625 1.671875 6.800781 1.609375 2.816406-.046875 4.589844-2.519532 6.28125-5.054688 2.03125-2.875 2.84375-5.707031 2.875-5.851562-.066406-.023438-5.46875-2.085938-5.523438-8.328125"
        />
        <path
          d="m42.585937 15.28125c1.410157-1.765625 2.382813-4.171875 2.109375-6.609375-2.042968.09375-4.597656 1.414062-6.070312 3.140625-1.300781 1.523437-2.46875 4.019531-2.164063 6.363281 2.296875.171875 4.652344-1.15625 6.125-2.894531"
        />
        <path
          d="m79.4375 40.535156-1.8125-5.597656c-.191406-.570313-.550781-1.917969-1.082031-4.035157h-.0625c-.210938.910157-.554688 2.257813-1.019532 4.035157l-1.78125 5.597656zm6.265625 8.941406h-3.660156l-2.003907-6.296875h-6.960937l-1.910156 6.296875h-3.5625l6.90625-21.4375h4.257812"
        />
        <path
          d="m99.953125 41.683593c0-1.507812-.339844-2.746093-1.019531-3.722656-.742188-1.015625-1.738282-1.527344-2.988282-1.527344-.847656 0-1.621093.285157-2.304687.84375-.6875.566407-1.140625 1.300782-1.355469 2.214844-.105469.421875-.15625.769531-.15625 1.042969v2.578125c0 1.125.34375 2.074219 1.03125 2.847656.691406.777344 1.585938 1.160156 2.6875 1.160156 1.296875 0 2.304688-.496093 3.019531-1.496093.726563-.996094 1.085938-2.308594 1.085938-3.941407m3.5-.128906c0 2.628906-.710938 4.710938-2.132813 6.234375-1.273437 1.359375-2.855468 2.035156-4.738281 2.035156-2.039062 0-3.5-.734375-4.390625-2.195312h-.0625v8.144531h-3.4375v-16.667969c0-1.652343-.039062-3.347656-.125-5.089843h3.019531l.191407 2.453125h.066406c1.144531-1.847657 2.882812-2.769532 5.214844-2.769532 1.820312 0 3.347656.722657 4.5625 2.164063 1.21875 1.445312 1.832031 3.339844 1.832031 5.691406"
        />
        <path
          d="m117.730469 41.683593c0-1.507812-.339844-2.746093-1.019532-3.722656-.742187-1.015625-1.738281-1.527344-2.988281-1.527344-.847656 0-1.617187.285157-2.304687.84375-.691407.566407-1.136719 1.300782-1.347657 2.214844-.109375.421875-.160156.769531-.160156 1.042969v2.578125c0 1.125.339844 2.074219 1.027344 2.847656.691406.777344 1.585937 1.160156 2.691406 1.160156 1.292969 0 2.300781-.496093 3.019531-1.496093.71875-.996094 1.082032-2.308594 1.082032-3.941407m3.496093-.128906c0 2.628906-.707031 4.710938-2.128906 6.234375-1.273437 1.359375-2.851562 2.035156-4.738281 2.035156-2.035156 0-3.496094-.734375-4.390625-2.195312h-.058594v8.144531h-3.4375v-16.667969c0-1.652343-.042969-3.347656-.125-5.089843h3.019531l.191407 2.453125h.066406c1.140625-1.847657 2.878906-2.769532 5.210937-2.769532 1.824219 0 3.34375.722657 4.566407 2.164063 1.21875 1.445312 1.824218 3.339844 1.824218 5.691406"
        />
        <path
          d="m141.109375 43.464843c0 1.820313-.632813 3.304688-1.90625 4.453125-1.398438 1.25-3.339844 1.875-5.835938 1.875-2.308593 0-4.160156-.445312-5.5625-1.335937l.796875-2.859375c1.511719.910156 3.164063 1.363281 4.96875 1.363281 1.292969 0 2.300782-.289062 3.023438-.871094.71875-.585937 1.078125-1.367187 1.078125-2.34375 0-.867187-.292969-1.605468-.886719-2.199218s-1.582031-1.144532-2.960937-1.65625c-3.753907-1.402344-5.628907-3.453125-5.628907-6.148438 0-1.761719.65625-3.207031 1.972657-4.332031 1.3125-1.125 3.0625-1.691406 5.246093-1.691406 1.953125 0 3.574219.34375 4.867188 1.019531l-.859375 2.800781c-1.207031-.65625-2.574219-.988281-4.101563-.988281-1.210937 0-2.152343.296875-2.828125.890625-.570312.53125-.859375 1.179687-.859375 1.941406 0 .847656.324219 1.546875.984375 2.097656.570313.507813 1.609375 1.058594 3.117188 1.65625 1.84375.742188 3.199219 1.609375 4.070312 2.605469.867188.996094 1.304688 2.238281 1.304688 3.722656"
        />
        <path
          d="m152.460937 36.59375h-3.785156v7.503906c0 1.910156.667969 2.863281 2.007813 2.863281.609375 0 1.121093-.050781 1.523437-.15625l.09375 2.605469c-.671875.257812-1.566406.382812-2.667969.382812-1.355468 0-2.417968-.414062-3.183593-1.238281-.761719-.828125-1.144532-2.21875-1.144532-4.167969v-7.792968h-2.257812v-2.578125h2.257812v-2.828125l3.371094-1.019532v3.847657h3.785156"
        />
        <path
          d="m165.980469 41.730468c0-1.425781-.308594-2.644531-.925782-3.667968-.714843-1.234375-1.746093-1.851563-3.082031-1.851563-1.378906 0-2.429687.617188-3.148437 1.851563-.617188 1.023437-.917969 2.265625-.917969 3.734375 0 1.425781.300781 2.644531.917969 3.664062.742187 1.234375 1.78125 1.851563 3.121093 1.851563 1.308594 0 2.339844-.625 3.082032-1.882813.636718-1.039062.953125-2.273437.953125-3.699219m3.5625-.109375c0 2.375-.675782 4.324219-2.035157 5.851563-1.421875 1.570312-3.308593 2.351562-5.660156 2.351562-2.273437 0-4.078125-.753906-5.425781-2.257812-1.34375-1.503906-2.015625-3.402344-2.015625-5.691406 0-2.398438.691406-4.359375 2.082031-5.882813 1.386719-1.53125 3.257813-2.292969 5.609375-2.292969 2.269531 0 4.097656.753907 5.472656 2.257813 1.316407 1.46875 1.972657 3.351562 1.972657 5.664062"
        />
        <path
          d="m180.707031 37.039062c-.339844-.0625-.699219-.09375-1.082031-.09375-1.207031 0-2.144531.457031-2.800781 1.367188-.570313.808593-.855469 1.824218-.855469 3.050781v8.113281h-3.433594l.027344-10.589844c0-1.785156-.042969-3.40625-.125-4.871093h2.992187l.125 2.960937h.089844c.363281-1.015625.9375-1.835937 1.71875-2.449219.765625-.550781 1.59375-.828125 2.484375-.828125.316406 0 .605469.023438.859375.0625"
        />
        <path
          d="m192.789062 40.125c.023438-1.015625-.199218-1.898438-.664062-2.640625-.59375-.953125-1.511719-1.433594-2.738281-1.433594-1.121094 0-2.035157.46875-2.734375 1.402344-.570313.742187-.914063 1.632812-1.011719 2.671875zm3.273438.890625c0 .617187-.039063 1.132812-.121094 1.558593h-10.300781c.035156 1.527344.535156 2.695313 1.492187 3.5.867188.722657 1.992188 1.078125 3.371094 1.078125 1.523438 0 2.914063-.242187 4.167969-.730468l.539062 2.386718c-1.464843.632813-3.191406.957032-5.1875.957032-2.394531 0-4.277343-.707032-5.644531-2.121094-1.363281-1.40625-2.050781-3.300781-2.050781-5.675781 0-2.332032.632812-4.273438 1.910156-5.820313 1.332031-1.65625 3.136719-2.480469 5.402344-2.480469 2.226562 0 3.917969.824219 5.0625 2.480469.910156 1.3125 1.359375 2.9375 1.359375 4.867188"
        />
      </g>
    </g>
  </svg>
  