<svg fill="none" height="138" viewBox="0 0 146 138" width="146" xmlns="http://www.w3.org/2000/svg" xmlns:xlink="http://www.w3.org/1999/xlink"><radialGradient id="a" cx="0" cy="0" gradientTransform="matrix(52.1531 0 0 52.7308 74.5037 59.1728)" gradientUnits="userSpaceOnUse" r="1"><stop offset=".11" stop-color="#79e2f2"/><stop offset=".19" stop-color="#79e2f2" stop-opacity=".96"/><stop offset=".32" stop-color="#79e2f2" stop-opacity=".86"/><stop offset=".48" stop-color="#79e2f2" stop-opacity=".69"/><stop offset=".67" stop-color="#79e2f2" stop-opacity=".46"/><stop offset=".88" stop-color="#79e2f2" stop-opacity=".17"/><stop offset="1" stop-color="#79e2f2" stop-opacity="0"/></radialGradient><linearGradient id="b" gradientUnits="userSpaceOnUse" x1="21.3818" x2="125.47" y1="60.7336" y2="60.7336"><stop offset="0" stop-color="#00b8d9"/><stop offset="1" stop-color="#00b8d9" stop-opacity="0"/></linearGradient><linearGradient id="c" gradientUnits="userSpaceOnUse" x1="36.8925" x2="119.221" y1="57.6498" y2="57.6498"><stop offset="0" stop-color="#8777d9" stop-opacity="0"/><stop offset=".05" stop-color="#8777d9" stop-opacity=".08"/><stop offset=".28" stop-color="#8777d9" stop-opacity=".4"/><stop offset=".49" stop-color="#8777d9" stop-opacity=".66"/><stop offset=".67" stop-color="#8777d9" stop-opacity=".84"/><stop offset=".81" stop-color="#8777d9" stop-opacity=".96"/><stop offset=".89" stop-color="#8777d9"/></linearGradient><linearGradient id="d"><stop offset="0" stop-color="#ed50b4" stop-opacity="0"/><stop offset=".05" stop-color="#ed50b4" stop-opacity=".08"/><stop offset=".34" stop-color="#ed50b4" stop-opacity=".47"/><stop offset=".58" stop-color="#ed50b4" stop-opacity=".75"/><stop offset=".75" stop-color="#ed50b4" stop-opacity=".93"/><stop offset=".84" stop-color="#ed50b4"/></linearGradient><linearGradient id="e" gradientUnits="userSpaceOnUse" x1="28.3121" x2="125.028" xlink:href="#d" y1="43.6894" y2="43.6894"/><linearGradient id="f" gradientUnits="userSpaceOnUse" x1="0" x2="1819.02" xlink:href="#d" y1="925.614" y2="925.614"/><linearGradient id="g" gradientUnits="userSpaceOnUse" x1="47.4158" x2="101.758" y1="85.2477" y2="31.5064"><stop offset="0" stop-color="#0065ff"/><stop offset="1" stop-color="#00b8d9"/></linearGradient><linearGradient id="h" gradientUnits="userSpaceOnUse" x1="53.8298" x2="95.2025" y1="78.7625" y2="37.8431"><stop offset="0" stop-color="#00b8d9"/><stop offset=".06" stop-color="#14bfdd"/><stop offset=".23" stop-color="#44cfe8"/><stop offset=".39" stop-color="#6cddf0"/><stop offset=".56" stop-color="#8be7f7"/><stop offset=".71" stop-color="#a1effb"/><stop offset=".86" stop-color="#aef3fe"/><stop offset="1" stop-color="#b3f5ff"/></linearGradient><linearGradient id="i" gradientUnits="userSpaceOnUse" x1="20.3802" x2="113.838" y1="50.5854" y2="70.3925"><stop offset="0" stop-color="#fff"/><stop offset=".69" stop-color="#fff" stop-opacity=".1"/></linearGradient><linearGradient id="j" gradientUnits="userSpaceOnUse" x1="20.5355" x2="124.618" y1="59.8725" y2="59.8725"><stop offset="0" stop-color="#00b8d9"/><stop offset=".74" stop-color="#79e2f2"/><stop offset=".75" stop-color="#72e0f1" stop-opacity=".94"/><stop offset=".82" stop-color="#4ad2e8" stop-opacity=".61"/><stop offset=".89" stop-color="#2ac7e2" stop-opacity=".35"/><stop offset=".94" stop-color="#13bfdd" stop-opacity=".16"/><stop offset=".98" stop-color="#05bada" stop-opacity=".04"/><stop offset="1" stop-color="#00b8d9" stop-opacity="0"/></linearGradient><linearGradient id="k" gradientUnits="userSpaceOnUse" x1="132.453" x2="132.453" y1="59.4688" y2="43.6033"><stop offset=".16" stop-color="#ed50b4"/><stop offset=".25" stop-color="#ed50b4" stop-opacity=".93"/><stop offset=".42" stop-color="#ed50b4" stop-opacity=".75"/><stop offset=".66" stop-color="#ed50b4" stop-opacity=".47"/><stop offset=".95" stop-color="#ed50b4" stop-opacity=".08"/><stop offset="1" stop-color="#ed50b4" stop-opacity="0"/></linearGradient><linearGradient id="l" gradientUnits="userSpaceOnUse" x1="38.9365" x2="29.0535" y1="12.5772" y2="39.4216"><stop offset=".11" stop-color="#8777d9"/><stop offset=".23" stop-color="#8777d9" stop-opacity=".87"/><stop offset=".49" stop-color="#8777d9" stop-opacity=".53"/><stop offset=".86" stop-color="#8777d9" stop-opacity="0"/></linearGradient><linearGradient id="m" gradientUnits="userSpaceOnUse" x1="44.1795" x2="125.039" y1="77.9822" y2="77.9822"><stop offset=".11" stop-color="#998dd9"/><stop offset=".27" stop-color="#a296df"/><stop offset=".53" stop-color="#b9aeed"/><stop offset=".6" stop-color="#c0b6f2"/><stop offset=".65" stop-color="#c0b6f2" stop-opacity=".91"/><stop offset=".75" stop-color="#c0b6f2" stop-opacity=".68"/><stop offset=".89" stop-color="#c0b6f2" stop-opacity=".31"/><stop offset="1" stop-color="#c0b6f2" stop-opacity="0"/></linearGradient><linearGradient id="n" gradientUnits="userSpaceOnUse" x1="93.9267" x2="114.473" y1="18.325" y2="18.325"><stop offset="0" stop-color="#79e2f2"/><stop offset=".06" stop-color="#7fe4f3"/><stop offset=".44" stop-color="#9bedfa"/><stop offset=".76" stop-color="#adf3fe"/><stop offset="1" stop-color="#b3f5ff"/></linearGradient><linearGradient id="o" gradientUnits="userSpaceOnUse" x1="14.966" x2="31.7194" y1="60.9958" y2="58.2096"><stop offset="0" stop-color="#f99cdb"/><stop offset=".07" stop-color="#f9a3de"/><stop offset=".31" stop-color="#fbb6e5"/><stop offset=".56" stop-color="#fcc2ea"/><stop offset=".82" stop-color="#fcc6eb"/></linearGradient><linearGradient id="p" gradientUnits="userSpaceOnUse" x1="120.536" x2="134.263" y1="43.0167" y2="43.0167"><stop offset="0" stop-color="#f99cdb"/><stop offset=".43" stop-color="#f99edc"/><stop offset=".66" stop-color="#faa6df"/><stop offset=".85" stop-color="#fbb4e4"/><stop offset="1" stop-color="#fcc6eb"/></linearGradient><clipPath id="q"><path d="m0 0h146v138h-146z"/></clipPath><g clip-path="url(#q)"><path d="m74.5037 111.904c28.8033 0 52.1533-23.6087 52.1533-52.7312 0-29.1224-23.35-52.73078-52.1533-52.73078-28.8034 0-52.1531 23.60838-52.1531 52.73078 0 29.1225 23.3497 52.7312 52.1531 52.7312z" fill="url(#a)" opacity=".4"/><path d="m23.4205 113.351c-.3792.021-.7581-.045-1.1083-.193-.3503-.148-.6629-.375-.9144-.662l1.9535-1.981h.1597c.7824 0 4.7266-.624 18.2253-11.3877 10.5392-8.4064 23.527-20.2947 36.5732-33.4855 13.0463-13.1908 24.8045-26.3224 33.1135-36.9783 12.242-15.6934 11.231-18.6157 11.215-18.6426l1.996-1.92129c1.038 1.04945 3.465 3.49819-10.284 21.32809-8.415 10.9089-20.5191 24.471-34.0657 38.2107s-26.9814 25.9564-37.7921 34.4436c-11.7528 9.262-16.751 11.269-19.0717 11.269z" fill="url(#b)"/><path d="m117.842 99.6601c-.222.0005-.441-.053-.638-.156-.198-.1031-.367-.2526-.496-.436-7.819-11.2049-22.1798-27.6947-38.4145-44.1307-14.9358-15.0691-29.8078-28.5236-40.8421-36.7954-.2785-.2269-.4593-.554-.5045-.9128-.0451-.3588.0488-.7213.2622-1.0115.2134-.2903.5297-.4857.8825-.5453.3528-.0597.7148.0211 1.0099.2254 11.1247 8.3633 26.1192 21.8716 41.1455 37.0644 16.3411 16.5222 30.819 33.1519 38.724 44.4806.209.3038.291.679.228 1.0438-.062.3649-.265.6899-.564.9044-.229.1719-.507.266-.793.2691z" fill="url(#c)"/><path d="m123.644 46.4019h-.17c-13.478-1.6845-31.405-2.6156-50.4713-2.6156-15.7556 0-30.6809.6297-43.1789 1.8191-.3636.0288-.7241-.0865-1.0052-.3215s-.4608-.5713-.5011-.9379c-.0341-.3688.0779-.7363.3113-1.0218.2335-.2855.5695-.4658.9342-.5012 12.5832-1.2002 27.6042-1.8298 43.4397-1.8298 19.1621 0 37.2223.9364 50.8113 2.637.364.0251.702.1945.943.4712.24.2767.362.6382.339 1.0056-.022.3674-.187.7109-.46.9556-.272.2446-.628.3704-.992.35z" fill="url(#e)"/><path d="m1.38394 52.7416c-.36705 0-.719056-.1474-.978594-.4098-.259539-.2624-.405346-.6183-.405346-.9894 0-2.2442 2.704-3.9126 8.76138-5.4087 4.93962-1.2163 12.13072-2.2981 20.80162-3.1215.1867-.0284.3772-.0179.5598.0309.1825.0488.3532.1348.5017.2528.1484.118.2714.2655.3613.4333.09.1679.145.3525.1618.5427.0167.1901-.0052.3817-.0645.563-.0592.1813-.1545.3484-.28.491s-.2785.2578-.4497.3384c-.1711.0806-.3568.125-.5455.1303-24.48507 2.3303-26.89099 5.5325-27.04535 5.7962-.01239.3617-.16292.7045-.41998.9564-.25707.2519-.60066.3933-.95863.3944z" fill="url(#f)"/><path d="m79.4699 95.7422v-1.9429c.0021-.5869-.1108-1.1685-.3321-1.7111s-.5468-1.0355-.9575-1.4503-.8987-.7432-1.4356-.9664c-.5369-.2231-1.1122-.3365-1.6928-.3337-.5771 0-1.1486.115-1.6817.3385s-1.0174.551-1.4253.9639c-.4078.4128-.7312.9029-.9516 1.4422-.2203.5393-.3334 1.1173-.3327 1.7008v1.9428c.0014 1.6329-.4564 3.2325-1.3201 4.612-.8626 1.378-1.3204 2.976-1.32 4.607v25.94c0 1.887.7414 3.697 2.061 5.031 1.3197 1.334 3.1095 2.084 4.9758 2.084 1.8662 0 3.6561-.75 4.9757-2.084 1.3197-1.334 2.061-3.144 2.061-5.031v-25.94c.0004-1.631-.4574-3.229-1.32-4.607-.8551-1.3766-1.3072-2.9701-1.3041-4.5958z" fill="#0065ff"/><path d="m80.6942 100.188c-.7993-1.3426-1.2225-2.8792-1.2243-4.4458v-1.9429c.0021-.5869-.1108-1.1685-.3321-1.7111s-.5468-1.0355-.9575-1.4503-.8986-.7432-1.4356-.9664c-.5369-.2231-1.1122-.3365-1.6928-.3337-.5771 0-1.1486.115-1.6817.3385s-1.0174.551-1.4253.9639c-.4078.4128-.7312.9029-.9516 1.4422-.2203.5393-.3334 1.1173-.3327 1.7008v1.9428c-.0017 1.5642-.423 3.0987-1.2189 4.44 3.7224.57 7.5087.57 11.2312 0z" fill="#b3bac5"/><path d="m47.4105 85.2477c-7.1291-7.2081-11.1342-16.9843-11.1342-27.1781 0-10.1937 4.0051-19.97 11.1342-27.178 7.1291-7.2081 16.7982-11.2576 26.8803-11.2576s19.7512 4.0495 26.8802 11.2576c3.543 3.56 6.351 7.7952 8.264 12.4604 1.912 4.6652 2.89 9.6676 2.877 14.7176.006 7.6053-2.221 15.0412-6.397 21.3663-4.177 6.3251-10.1161 11.2548-17.0656 14.165-6.9494 2.9101-14.5967 3.6698-21.9735 2.1828-7.3767-1.487-14.1511-5.1538-19.4654-10.536z" fill="url(#g)"/><path d="m58.6417 33.4639c-5.63 3.6593-9.8313 9.1788-11.8882 15.6183-2.0569 6.4396-1.8422 13.401.6074 19.6985s6.9827 11.5417 12.8272 14.8393 12.6389 4.4447 19.2259 3.2459c6.5871-1.1988 12.5594-4.6694 16.8998-9.8206 4.3402-5.1511 6.7802-11.6643 6.9042-18.4302s-2.076-13.3661-6.2243-18.6763c-4.1487-5.3101-9.9898-9.002-16.5284-10.4466-3.7166-.8321-7.5595-.9094-11.3059-.2276-3.7463.6818-7.3214 2.1092-10.5177 4.1993z" fill="url(#h)"/><path d="m68.1323 86.6469c6.3451 1.3973 12.9706.5967 18.8114-2.273 5.8408-2.8698 10.5574-7.642 13.3913-13.5494-1.0511.0248-2.1032-.0112-3.1507-.1077-9.4534-.8826-15.5959-6.3774-18.5607-9.1006-8.8945-8.1857-8.2664-15.1498-13.685-22.4313-1.7033-2.2544-3.737-4.2326-6.0308-5.8662l-.2395.1453c-4.807 3.1294-8.5896 7.6283-10.8704 12.9289s-2.9577 11.1656-1.9453 16.8548 3.6687 10.9478 7.6339 15.1122c3.9651 4.1644 9.0614 7.048 14.6458 8.287z" fill="url(#i)"/><path d="m90.6319 92.7822c-8.8785-7.6098-18.8748-16.9849-28.887-27.1242-1.7743-1.794-3.5149-3.5771-5.2217-5.3495 1.7139-1.794 3.4545-3.5771 5.2217-5.3495 11.2365-11.3664 22.457-21.8071 32.0967-29.8529-.8588-.5166-1.7317-.9974-2.6189-1.4423-9.5012 7.9866-20.429 18.1636-31.4579 29.3147-1.7566 1.7759-3.4865 3.5484-5.1898 5.3172-4.9396-5.1719-9.6184-10.2631-13.9724-15.2413-.1377-.1553-.3083-.2771-.4991-.3563s-.3969-.1138-.6028-.1011c-.3353.7696-.6547 1.5445-.9421 2.3411 4.3913 4.9943 9.1127 10.1339 14.0895 15.3435-4.5457 4.7575-8.8625 9.4396-12.8546 13.9442.4152.9041.8729 1.7921 1.3573 2.6586 4.1518-4.7037 8.6603-9.6119 13.4189-14.5954 1.7033 1.7652 3.435 3.5376 5.1951 5.3172 9.7195 9.8325 19.3591 18.8955 28.0194 26.3708.9634-.3337 1.9162-.7427 2.8477-1.1948z" fill="#091e42" opacity=".1"/><path d="m21.3818 112.48c-1.0645-1.05-3.4598-3.499 10.2891-21.3285 8.4154-10.9089 20.5195-24.4764 34.0661-38.2107 13.5466-13.7344 26.9761-25.9564 37.792-34.4435 17.629-13.90119 20.057-11.44709 21.089-10.40302l-1.953 1.98052c-.053-.0067-.107-.0067-.16 0-.782 0-4.727.6243-18.225 11.3879-10.5343 8.4063-23.522 20.2947-36.5682 33.4855-13.0463 13.1908-24.8098 26.317-33.1134 36.9837-12.2425 15.7041-11.2312 18.6161-11.2205 18.6421z" fill="url(#j)"/><path d="m73.0027 61.7023c-19.1889 0-37.2333-.9365-50.8118-2.6371-22.19090067-2.777-22.19090114-6.2429-22.19090114-7.7229-.01171356-.1907.01532144-.3818.07943894-.5615.0641172-.1797.1639592-.3443.2933712-.4835s.285653-.2502.459093-.326c.173438-.0758.360408-.115.549368-.115.18897 0 .37594.0392.54938.115s.32968.1868.45909.326.22925.3038.29337.4835.09115.3708.07944.5615c0 0 1.46378 2.7663 20.95595 5.0966 13.3071 1.5876 30.8299 2.4648 49.2788 2.4648 17.3738 0 34.1137-.7857 47.1287-2.2226.18-.0202.363-.0041.538.0472.174.0513.337.1368.479.2518.142.1149.26.257.348.4181.087.161.142.338.162.5207s.004.3675-.046.544c-.051.1765-.136.3412-.249.4846-.114.1435-.255.2628-.414.3514-.159.0885-.334.1444-.515.1646-13.11 1.4423-29.9408 2.2388-47.4263 2.2388z" fill="#ed50b4"/><path d="m120.296 59.4688c-.35-.0054-.686-.145-.938-.3906-.253-.2457-.404-.5791-.423-.933-.019-.3538.096-.7017.321-.9735s.543-.4471.891-.4907c19.849-2.1527 22.718-4.8759 23.069-5.3387-.33-.4359-2.885-2.8416-19.726-4.9513-.18-.0226-.354-.0808-.512-.1713-.158-.0906-.296-.2116-.408-.3563-.111-.1447-.193-.3102-.241-.4869-.049-.1768-.062-.3615-.04-.5435.023-.182.08-.3577.17-.5172.089-.1595.209-.2996.352-.4123.143-.1126.307-.1957.482-.2445.175-.0487.357-.0622.537-.0396 22.186 2.7716 22.186 6.2429 22.186 7.7229 0 5.3064-17.917 7.2762-25.55 8.1211z" fill="url(#k)"/><path d="m45.5635 44.0069c-16.0644-18.2766-25.6987-32.3823-23.2076-34.90632 1.533-1.55534 7.4094 1.53922 15.9153 7.93812" stroke="url(#l)" stroke-linecap="round" stroke-miterlimit="10" stroke-width="5.2"/><path d="m122.595 113.351c-2.336 0-7.334-2.007-19.066-11.258-10.7946-8.509-24.2081-20.7472-37.792-34.4438-7.6223-7.7444-14.7656-15.3812-21.2062-22.7112-.1223-.1371-.2167-.2972-.2778-.4712-.0612-.1741-.0878-.3585-.0784-.5429s.0546-.3652.1331-.5319.1886-.3162.3242-.4399c.1357-.1237.294-.2191.4661-.2809s.3546-.0887.537-.0793c.1823.0095.3611.0553.526.1346.1649.0794.3128.1908.4351.3279 6.3874 7.2923 13.5147 14.8914 21.1157 22.5766 13.0462 13.1908 26.0339 25.0791 36.5682 33.4855 15.526 12.3785 18.417 11.3505 18.438 11.3395.126-.13.276-.233.442-.304.166-.07.344-.107.524-.107s.358.037.524.107c.166.071.316.174.442.304.256.27.396.631.39 1.005s-.158.73-.422.992c-.247.295-.558.53-.908.685-.351.156-.732.229-1.115.213z" fill="url(#m)"/><path d="m108.117 10.4784h-7.84c-1.6848.0014-3.3.679-4.4907 1.8839-1.1907 1.205-1.8596 2.8386-1.8596 4.5419 0 1.7028.6691 3.3359 1.8599 4.54 1.1909 1.2041 2.8061 1.8805 4.4904 1.8805h.362c.837-.0123 1.655.2539 2.329.7576.673.5036 1.164 1.2169 1.397 2.0302v.0376c.002.0058.006.0107.012.0142.005.0034.011.0052.017.0052s.012-.0018.018-.0052c.005-.0035.009-.0084.011-.0142v-.0376c.235-.8123.726-1.5246 1.399-2.028s1.49-.7703 2.327-.7598c.835.0007 1.661-.1648 2.432-.4872.771-.3223 1.472-.7951 2.062-1.3914s1.058-1.3043 1.378-2.0836c.319-.7793.484-1.6147.484-2.4583 0-.8466-.166-1.6848-.487-2.4665-.321-.7818-.792-1.4916-1.386-2.0887s-1.298-1.0698-2.073-1.3908c-.774-.321-1.604-.4841-2.442-.4798z" fill="url(#n)"/><path d="m32.4125 53.2344-15.6881-3.5689c-.3011-.0685-.6002.1228-.6679.4273l-3.5297 15.8619c-.0678.3045.1214.6068.4226.6753l15.6881 3.5688c.3011.0685.6002-.1227.6679-.4272l3.5297-15.8619c.0678-.3045-.1214-.6068-.4226-.6753z" fill="#ed50b4"/><path d="m27.5817 67.7852 2.8497-12.8061-12.6657-2.8812-2.8497 12.806z" fill="url(#o)"/><path d="m16.9373 62.3965 6.3235-4.0471 4.0027 6.3935z" fill="#ed50b4"/><path d="m20.1097 58.4355c.8848 0 1.6021-.7252 1.6021-1.6199s-.7173-1.6199-1.6021-1.6199c-.8849 0-1.6022.7252-1.6022 1.6199s.7173 1.6199 1.6022 1.6199z" fill="#ed50b4"/><path d="m128.914 34.1098-7.889-.2368-.484 17.8784 13.403.4036.319-12.2974z" fill="url(#p)"/><path d="m128.749 39.6908 5.514.1668-5.349-5.7477z" fill="#fcc6eb"/><path d="m95.5555 109.39c-.6267-.089-1.1929-.426-1.5749-.936s-.5487-1.153-.4637-1.787l1.5968-11.5976c.0873-.6336.4189-1.2065.9226-1.5937.5036-.3872 1.1383-.5572 1.7655-.4729l11.4812 1.6146c.315.04.618.1436.892.3044.275.1609.514.3758.705.632.192.2511.332.5387.411.8457.08.307.097.627.052.941l-1.597 11.6035c-.087.628-.415 1.196-.913 1.581-.498.386-1.126.558-1.748.48z" fill="#c0b6f2"/><path d="m109.072 95.9999-11.4794-1.6002c-.5475-.0764-1.0525.3105-1.128.8641l-1.5827 11.6062c-.0754.554.3072 1.064.8547 1.141l11.4794 1.6c.547.076 1.052-.311 1.128-.864l1.582-11.6067c.076-.5535-.307-1.0641-.854-1.1404z" fill="#6554c0"/><path d="m100.133 105.16-2.4164-3.358c-.0277-.037-.0478-.079-.059-.124-.0113-.044-.0135-.091-.0066-.137.007-.045.023-.089.047-.129.0241-.039.0557-.073.0931-.1l.841-.619c.0367-.027.0783-.047.1225-.058.0442-.01.0902-.013.1352-.006s.0881.023.127.047c.039.024.0728.056.0997.093l1.6285 2.26 5.435-3.7402c.077-.0507.17-.0695.26-.0524.09.017.171.0686.224.1439l.586.8717c.05.077.069.172.051.262-.018.091-.071.171-.147.222l-6.552 4.505c-.074.048-.163.067-.25.052s-.165-.062-.219-.133z" fill="#f4f5f7"/><g fill="#79e2f2"><path d="m53.6808 99.4395c.3278 1.4635 1.0595 2.8025 2.1101 3.8615s2.3769 1.795 3.8248 2.123c-1.4481.325-2.7748 1.06-3.8256 2.119-1.0509 1.058-1.7824 2.397-2.1093 3.86-.324-1.462-1.0526-2.8-2.1006-3.859-1.0481-1.058-2.3725-1.794-3.8184-2.12 1.4458-.328 2.7697-1.065 3.8175-2.125 1.0479-1.059 1.7766-2.398 2.1015-3.8595z"/><path d="m60.3769 114.406c.1354.612.44 1.172.8783 1.615.4382.443.992.751 1.5968.888-.6052.138-1.1592.447-1.5974.891s-.7426 1.005-.8777 1.617c-.1361-.613-.4415-1.174-.8806-1.618s-.9939-.753-1.5998-.89c.6054-.137 1.1601-.445 1.5992-.888.4392-.443.7448-1.003.8812-1.615z"/><path d="m91.9892 9.27289c-1.4454-.32816-2.7688-1.06498-3.8158-2.12457s-1.7746-2.39828-2.0979-3.85999c-.3254 1.46157-1.0543 2.79978-2.1021 3.85914-1.0477 1.05935-2.3713 1.79637-3.8168 2.12542 1.4458.32844 2.7697 1.06531 3.8175 2.12471 1.0479 1.0595 1.7766 2.398 2.1014 3.8598.3227-1.4619 1.0501-2.801 2.0972-3.8606 1.0471-1.0597 2.3708-1.79636 3.8165-2.12391z"/><path d="m77.1811 2.50253c-.6038-.13782-1.1565-.4462-1.5938-.88923-.4372-.44303-.741-1.002502-.876-1.6133-.1354.611491-.44 1.17144-.8783 1.61454-.4382.4431-.992.75107-1.5968.88799.6052.13794 1.1592.44691 1.5974.89093.4382.44401.7426 1.00479.8777 1.61699.1347-.61151.4383-1.1718.8755-1.61575s.9901-.75333 1.5943-.89217z"/></g></g></svg>